<svg aria-hidden="true" style="position: absolute; width: 0; height: 0; overflow: hidden;" version="1.1" xmlns="http://www.w3.org/2000/svg" xmlns:xlink="http://www.w3.org/1999/xlink">
<defs>
<symbol id="icon-logo" viewBox="0 0 78 32">
<path fill="#fff" style="fill: var(--color1, #fff)" d="M34.442 9.961h-4.57v14.042h-3.326v-14.042h-4.546v-2.961h12.442v2.961zM49.546 7v11.176c0 1.847-0.63 3.303-1.89 4.37-1.244 1.067-2.783 1.6-4.618 1.6s-3.382-0.533-4.642-1.6c-1.244-1.067-1.866-2.523-1.866-4.37v-11.176h3.326v11.057c0 1.051 0.287 1.839 0.861 2.364 0.59 0.509 1.364 0.764 2.321 0.764s1.731-0.255 2.321-0.764c0.59-0.525 0.885-1.313 0.885-2.364v-11.057h3.302zM64.236 9.961h-6.005c-0.702 0-1.196 0.135-1.483 0.406-0.271 0.271-0.407 0.74-0.407 1.409v2.364h6.245l-0.239 2.961h-6.005v6.902h-3.326v-13.54c0-1.258 0.271-2.149 0.813-2.675 0.558-0.525 1.507-0.788 2.847-0.788h7.561v2.961zM78.349 9.961h-6.005c-0.702 0-1.196 0.135-1.483 0.406-0.271 0.271-0.407 0.74-0.407 1.409v2.364h6.245l-0.239 2.961h-6.005v6.902h-3.326v-13.54c0-1.258 0.271-2.149 0.814-2.675 0.558-0.525 1.507-0.788 2.847-0.788h7.561v2.961z"></path>
<path fill="#000" style="fill: var(--color2, #000)" d="M22.012 4.776h-22.012v21.97h22.012v-21.97z"></path>
</symbol>
<symbol id="icon-search" viewBox="0 0 32 32">
<path d="M31.646 29.774l-7.955-7.979c2.167-2.66 3.226-6.034 2.98-9.457-0.271-3.423-1.822-6.6-4.359-8.89-2.537-2.315-5.886-3.546-9.309-3.448-3.423 0.074-6.674 1.478-9.112 3.891-2.413 2.438-3.817 5.689-3.891 9.112-0.099 3.423 1.133 6.772 3.448 9.309 2.29 2.537 5.467 4.088 8.89 4.359 3.423 0.246 6.797-0.813 9.457-2.98l7.979 7.955c0.246 0.222 0.566 0.345 0.911 0.345 0.345-0.025 0.665-0.148 0.911-0.394s0.369-0.566 0.394-0.911c0-0.345-0.123-0.665-0.345-0.911zM13.373 24.036c-2.118 0-4.187-0.616-5.935-1.798-1.773-1.182-3.128-2.832-3.94-4.802-0.813-1.946-1.010-4.088-0.616-6.157 0.419-2.069 1.428-3.965 2.931-5.467s3.399-2.512 5.467-2.931c2.069-0.394 4.211-0.197 6.157 0.616 1.97 0.813 3.62 2.167 4.802 3.94 1.182 1.749 1.798 3.817 1.798 5.935 0 2.832-1.133 5.541-3.128 7.536s-4.704 3.128-7.536 3.128z"></path>
</symbol>
<symbol id="icon-heart" viewBox="0 0 32 32">
<path stroke-linejoin="round" stroke-linecap="butt" stroke-miterlimit="4" stroke-width="2.6667" d="M7 4c5-2 8 2 9 4 1-2 5-6 10-4s5 8 2 12c-3 4-12 12-12 12s-9-8-12-12c-3-4-2-10 3-12z"></path>
</symbol>
<symbol id="icon-bag" viewBox="0 0 32 32">
<path d="M27.92 24.080l-2.24-13c-0.16-1.12-0.693-2.133-1.533-2.88-0.827-0.747-1.893-1.173-3.013-1.2h-0.133c0-1.333-0.533-2.6-1.467-3.547-0.947-0.933-2.213-1.453-3.533-1.453-1.333 0-2.6 0.52-3.547 1.453-0.933 0.947-1.453 2.213-1.453 3.547h-0.147c-1.12 0.027-2.187 0.453-3.013 1.2-0.84 0.747-1.373 1.76-1.533 2.88l-2.227 13c-0.147 0.747-0.12 1.52 0.080 2.267 0.2 0.733 0.547 1.427 1.040 2.013 0.413 0.507 0.933 0.92 1.533 1.2 0.587 0.28 1.227 0.427 1.88 0.44h14.76c0.653-0.013 1.293-0.16 1.893-0.44 0.587-0.28 1.107-0.693 1.52-1.2 0.493-0.587 0.84-1.28 1.040-2.013 0.2-0.747 0.227-1.52 0.093-2.267zM16 4c0.787 0 1.547 0.307 2.12 0.867 0.56 0.573 0.88 1.333 0.88 2.133h-6c0-0.8 0.307-1.56 0.867-2.133 0.573-0.56 1.333-0.867 2.133-0.867zM25.253 27.080c-0.227 0.28-0.507 0.507-0.84 0.667-0.32 0.16-0.68 0.24-1.040 0.253h-14.76c-0.36-0.013-0.72-0.093-1.040-0.253-0.333-0.16-0.613-0.387-0.84-0.667-0.307-0.373-0.52-0.8-0.64-1.253-0.12-0.467-0.133-0.947-0.053-1.413l2.24-13c0.080-0.64 0.373-1.24 0.853-1.68 0.467-0.44 1.080-0.707 1.72-0.733h10.28c0.64 0.027 1.253 0.293 1.733 0.733 0.467 0.44 0.76 1.040 0.84 1.68l2.24 13c0.080 0.467 0.067 0.947-0.053 1.413-0.12 0.453-0.333 0.88-0.64 1.253z"></path>
</symbol>
<symbol id="icon-close" viewBox="0 0 32 32">
<path stroke-linejoin="round" stroke-linecap="round" stroke-miterlimit="4" stroke-width="3.2" d="M6.992 6.992l18 18"></path>
<path stroke-linejoin="round" stroke-linecap="round" stroke-miterlimit="4" stroke-width="3.2" d="M6.992 24.992l18-18"></path>
</symbol>
<symbol id="icon-avatar" viewBox="0 0 37 32">
<path fill="#753f8c" style="fill: var(--color1, #753f8c)" d="M33.025 19.306c2.325-0.987 3.898-3.028 3.764-5.655-0.033-0.736-0.201-1.456-0.468-2.141-0.251-0.619-0.652-1.138-0.937-1.74-0.586-1.255-0.853-2.627-1.338-3.898-2.108-5.521-8.984-7.177-13.953-4.868-2.225 1.037-3.948 2.894-5.052 5.103 1.706-0.586 3.63-0.251 5.036 0.903-0.050 0.084-0.1 0.151-0.151 0.234-2.342-1.74-5.755-0.937-7.11 1.673-1.322 2.509-0.167 5.722 2.409 6.809 1.573 0.652 3.396 0.418 4.751-0.619 0.050 0.084 0.117 0.151 0.184 0.217-1.573 1.338-3.848 1.623-5.688 0.719 0.669 1.087 1.606 1.991 2.677 2.66-0.786 1.472-1.338 3.112-1.372 4.785-0.033 1.522 0.050 3.179 0.586 4.617-1.372-0.033-2.961-0.301-3.915-1.405-0.92-1.037-1.104-2.543-1.104-3.881 0.017-1.656 0.368-3.229 0.586-4.852s0.084-3.313-0.602-4.801c-1.372-2.995-5.052-4.751-8.114-3.346-2.995 1.372-4.45 5.504-1.941 8.081 1.004 1.054 2.56 1.606 3.982 1.171 1.322-0.402 2.376-1.623 2.509-3.028 0.151-1.422-0.82-2.911-2.225-3.195-0.719-0.151-1.405 0.402-1.355 1.154 0.033 0.335 0.201 0.652 0.468 0.837 0.301 0.217 0.686 0.201 0.853 0.569 0.351 0.719-0.418 1.472-1.071 1.573-0.77 0.117-1.556-0.435-1.941-1.071-0.887-1.489 0.151-3.346 1.556-4.015 1.338-0.669 2.961-0.284 4.082 0.652 0.987 0.803 1.522 2.024 1.656 3.279 0.184 1.556-0.284 3.112-0.485 4.651-0.184 1.556-0.251 3.145 0.067 4.684 0.284 1.405 0.954 2.727 2.075 3.647s2.543 1.338 3.965 1.472c0.887 0.084 1.773 0.067 2.66 0 0.418 0.251 0.887 0.452 1.456 0.586 0.201 0.669 0.803 1.121 1.489 1.121h14.053c1.74 0 1.757-2.141 1.539-3.379-0.234-1.305-0.887-2.509-1.974-3.262-0.017-2.309-0.669-4.199-1.606-6.039zM19.022 13.099c-0.418 0.435-1.004 0.719-1.64 0.719-1.238 0-2.259-1.037-2.259-2.309 0-1.255 1.021-2.292 2.259-2.292 0.619 0 1.171 0.251 1.589 0.669-0.067 0.502-0.117 1.071-0.117 1.706 0 0.569 0.067 1.071 0.167 1.506zM24.208 13.267c0.218-1.171 1.021-2.192 1.522-3.246 0.435-0.92 0.719-1.941 1.288-2.794 1.054-1.539 2.861-2.459 4.701-2.376 0.92 1.288 1.238 2.844 1.757 4.316 0.218 0.652 0.452 1.288 0.82 1.874 0.435 0.686 0.753 1.405 0.887 2.225l-0.385-0.134c-0.569-0.234-0.937 0.669-0.569 1.037l0.736 0.753c0.050 0.050 0.1 0.084 0.134 0.1-0.636 2.593-3.664 3.346-5.922 3.563-2.627-0.167-5.538-2.359-4.969-5.32zM31.737 30.164h-10.523c-0.033-0.368-0.067-0.703 0.151-1.021 0.251-0.335 0.669-0.552 1.054-0.736 1.121-0.552 2.376-0.837 3.597-1.037 1.255-0.218 2.71-0.435 3.948-0.033 1.188 0.402 1.974 1.539 1.773 2.827zM32.222 29.662c-0.117-1.723-1.372-2.794-3.011-2.961 1.054-0.084 2.208-0.084 3.095 0.619 0.786 0.652 1.138 1.824 1.004 2.844h-1.087c0.017-0.167 0.017-0.335 0-0.502zM33.594 28.474c-0.335-1.087-1.171-1.84-2.225-2.125 1.037-0.033 2.091 0.167 2.794 1.021 0.602 0.736 0.837 1.857 0.703 2.794h-1.087c0.067-0.569 0-1.154-0.184-1.69zM33.376 25.162c0 0.335-0.017 0.669-0.084 1.004-0.602-0.251-1.255-0.318-1.907-0.301-0.502-1.84-0.234-3.881 0.786-5.487 0.686 1.472 1.205 3.128 1.205 4.785zM29.946 11.443c-0.033-1.004 0.519-1.84 1.221-1.874 0.719-0.017 1.305 0.786 1.338 1.79 0.033 1.021-0.519 1.857-1.221 1.874-0.703 0.033-1.305-0.77-1.338-1.79z"></path>
</symbol>
<symbol id="icon-telegram" viewBox="0 0 28 28">
<path d="M18.578 20.422l2.297-10.828c0.203-0.953-0.344-1.328-0.969-1.094l-13.5 5.203c-0.922 0.359-0.906 0.875-0.156 1.109l3.453 1.078 8.016-5.047c0.375-0.25 0.719-0.109 0.438 0.141l-6.484 5.859-0.25 3.563c0.359 0 0.516-0.156 0.703-0.344l1.687-1.625 3.5 2.578c0.641 0.359 1.094 0.172 1.266-0.594zM28 14c0 7.734-6.266 14-14 14s-14-6.266-14-14 6.266-14 14-14 14 6.266 14 14z"></path>
</symbol>
<symbol id="icon-instagram" viewBox="0 0 24 28">
<path d="M16 14c0-2.203-1.797-4-4-4s-4 1.797-4 4 1.797 4 4 4 4-1.797 4-4zM18.156 14c0 3.406-2.75 6.156-6.156 6.156s-6.156-2.75-6.156-6.156 2.75-6.156 6.156-6.156 6.156 2.75 6.156 6.156zM19.844 7.594c0 0.797-0.641 1.437-1.437 1.437s-1.437-0.641-1.437-1.437 0.641-1.437 1.437-1.437 1.437 0.641 1.437 1.437zM12 4.156c-1.75 0-5.5-0.141-7.078 0.484-0.547 0.219-0.953 0.484-1.375 0.906s-0.688 0.828-0.906 1.375c-0.625 1.578-0.484 5.328-0.484 7.078s-0.141 5.5 0.484 7.078c0.219 0.547 0.484 0.953 0.906 1.375s0.828 0.688 1.375 0.906c1.578 0.625 5.328 0.484 7.078 0.484s5.5 0.141 7.078-0.484c0.547-0.219 0.953-0.484 1.375-0.906s0.688-0.828 0.906-1.375c0.625-1.578 0.484-5.328 0.484-7.078s0.141-5.5-0.484-7.078c-0.219-0.547-0.484-0.953-0.906-1.375s-0.828-0.688-1.375-0.906c-1.578-0.625-5.328-0.484-7.078-0.484zM24 14c0 1.656 0.016 3.297-0.078 4.953-0.094 1.922-0.531 3.625-1.937 5.031s-3.109 1.844-5.031 1.937c-1.656 0.094-3.297 0.078-4.953 0.078s-3.297 0.016-4.953-0.078c-1.922-0.094-3.625-0.531-5.031-1.937s-1.844-3.109-1.937-5.031c-0.094-1.656-0.078-3.297-0.078-4.953s-0.016-3.297 0.078-4.953c0.094-1.922 0.531-3.625 1.937-5.031s3.109-1.844 5.031-1.937c1.656-0.094 3.297-0.078 4.953-0.078s3.297-0.016 4.953 0.078c1.922 0.094 3.625 0.531 5.031 1.937s1.844 3.109 1.937 5.031c0.094 1.656 0.078 3.297 0.078 4.953z"></path>
</symbol>
<symbol id="icon-linkedin" viewBox="0 0 24 28">
<path d="M5.453 9.766v15.484h-5.156v-15.484h5.156zM5.781 4.984c0.016 1.484-1.109 2.672-2.906 2.672v0h-0.031c-1.734 0-2.844-1.188-2.844-2.672 0-1.516 1.156-2.672 2.906-2.672 1.766 0 2.859 1.156 2.875 2.672zM24 16.375v8.875h-5.141v-8.281c0-2.078-0.75-3.5-2.609-3.5-1.422 0-2.266 0.953-2.641 1.875-0.125 0.344-0.172 0.797-0.172 1.266v8.641h-5.141c0.063-14.031 0-15.484 0-15.484h5.141v2.25h-0.031c0.672-1.062 1.891-2.609 4.672-2.609 3.391 0 5.922 2.219 5.922 6.969z"></path>
</symbol>
</defs>
</svg>


